<?xml version="1.0" encoding="UTF-8"?>
<svg viewBox="0 0 464.05075 970.73016" xmlns="http://www.w3.org/2000/svg" xmlns:xlink="http://www.w3.org/1999/xlink">
 <defs>
  <linearGradient id="a">
   <stop stop-color="#ff0a31" offset="0"/>
   <stop stop-color="#c60200" offset="1"/>
  </linearGradient>
  <linearGradient id="b">
   <stop stop-color="#6b5635" offset="0"/>
   <stop stop-color="#fff" offset="1"/>
  </linearGradient>
  <linearGradient id="g" x1="-8.2759e-5" x2="34.114" gradientUnits="userSpaceOnUse" xlink:href="#a"/>
  <linearGradient id="f" x1="430.47" x2="464.05" gradientUnits="userSpaceOnUse" xlink:href="#a"/>
  <radialGradient id="e" cx="64.457" cy="72.083" r="87.263" fx="63.62" fy="73.342" gradientUnits="userSpaceOnUse" xlink:href="#b"/>
  <radialGradient id="d" cx="406.77" cy="75.563" r="112.72" fx="407.55" fy="75.168" gradientUnits="userSpaceOnUse" xlink:href="#b"/>
  <radialGradient id="c" cx="565.16" cy="346.26" r="420.99" gradientTransform="matrix(.66292 0 0 1.5085 -141.49 -36.096)" gradientUnits="userSpaceOnUse" xlink:href="#a"/>
 </defs>
 <path d="m231.35 2.0918c175.61 6.1579 228.86 30.31 209.41 288.39l-9.1614 21.376c3.5989 119.1 7.1978 238.91 0 357.29 11.691 12.77 6.1076 29.859 9.1614 44.789 4.9973 38.444 7.1155 92.724 2.0358 145.56-8.5003 118.7-132.17 107.84-202.57 109.94-78.453-1.7565-184.26 23.839-213.76-108.92-2.8791-61.199-3.5989-110.16 0-177.12l8.1434-15.269c-3.2772-117.65-7.2741-233.13-1.1941-357.26l-10.797-29.511c-13.196-254.32 36.949-270.4 208.74-279.28z" fill="url(#c)" fill-rule="evenodd" stroke="#000" stroke-width=".75"/>
 <path d="m431.6 98.096c-37.324-74.309-122.49-83.47-203.59-85.506-86.185 3.7324-154.05 5.429-197.48 96.703 11.876-34.61 0.33931-104.85 198.5-108.92 179.83 3.3931 190.69 51.575 202.57 97.721z" fill="#bf0000" fill-rule="evenodd" stroke="#000" stroke-width=".75"/>
 <path d="m62.092 234.5c80.416-91.274 260.59-99.078 338.97 1.0179l-16.287 142.51c-73.969-16.626-190.69-34.27-304.36 5.0896l-18.323-148.62z" fill-opacity=".83065" fill-rule="evenodd" stroke="#000" stroke-width="1.25"/>
 <path d="m93.648 706.82c99.078 10.519 191.03 16.965 278.91-5.0896v145.56c-87.202 58.022-192.73 54.968-276.88 3.0538l-2.0359-143.53z" fill-opacity=".83065" fill-rule="evenodd" stroke="#000" stroke-width="1.25"/>
 <path d="m440.25 292.01c23.243 10.688 27.145 35.627 19.85 41.226-8.1434-0.84827-20.359-12.385-28.502-14.251l-0.50896-7.1255c3.3931-6.4469 5.7682-13.403 9.1613-19.85z" fill="url(#f)" fill-opacity=".75" fill-rule="evenodd" stroke="#000" stroke-width="1.25"/>
 <path d="m25.21 289.54c-23.69 9.6553-28.686 34.399-21.644 40.313 8.1728-0.48916 20.884-11.477 29.101-12.983l0.82196-7.0962c-3.1062-6.5899-5.173-13.644-8.2791-20.233z" fill="url(#g)" fill-opacity=".75" fill-rule="evenodd" stroke="#000" stroke-width="1.25"/>
 <path d="m381.72 45.164c-24.939 6.1076-20.868 19.341 3.0538 39.699 19.51 14.081 31.386 16.456 32.574-5.0896-1.6965-12.554-30.368-33.252-35.627-34.61z" fill="url(#d)" fill-opacity=".75" fill-rule="evenodd"/>
 <path d="m83.154 44.172c25.351 4.0766 22.359 17.595 0.15742 39.816-18.311 15.609-29.957 18.934-32.878-2.4464 0.67866-12.65 27.588-35.593 32.721-37.37z" fill="url(#e)" fill-opacity=".75" fill-rule="evenodd" stroke="#000" stroke-width="1.25"/>
 <path d="m49.877 270.13c-9.1614 147.26-7.1255 283.32-2.0358 425.49 4.0717 25.109 7.1255 51.236 11.197 76.345 12.385-61.924 20.189-192.56 14.251-315.56-5.2593-66.165-13.572-123.68-23.412-186.28z" fill-opacity=".83065" fill-rule="evenodd" stroke="#000" stroke-width="1.25"/>
 <path d="m417.24 258.62c9.1614 147.26 7.1255 283.32 2.0358 425.49-4.0717 25.109-7.1255 51.236-11.197 76.345-12.385-61.924-20.189-192.56-14.251-315.56 5.2593-66.165 13.572-123.68 23.412-186.28z" fill-opacity=".83065" fill-rule="evenodd" stroke="#000" stroke-width="1.25"/>
 <path d="m193.21 897.5 82.775-0.71978-2.1594 8.6374-76.297 0.71979-4.3187-8.6374z" fill-opacity=".58065" fill-rule="evenodd" stroke="#000" stroke-width="1.25"/>
 <path transform="translate(-142.93 -44.013)" d="m395.16 965.63a16.915 8.9973 0 1 1 -33.83 0 16.915 8.9973 0 1 1 33.83 0z" fill="#29007d" fill-rule="evenodd" stroke="#000" stroke-width="1.25"/>
 <path d="m354.44 918.38c5.5183-10.077 49.185-28.072 57.583-21.594 5.9982 17.995-25.432 36.709-38.149 41.028-10.797-1e-5 -20.154-8.6374-19.434-19.434z" fill="#f00" fill-opacity=".71774" fill-rule="evenodd" stroke="#000" stroke-width="1.25"/>
 <path d="m118 920.24c-5.5183-10.077-49.185-28.072-57.583-21.594-5.9982 17.995 25.432 36.709 38.149 41.028 10.797-1e-5 20.154-8.6374 19.434-19.434z" fill="#f00" fill-opacity=".71774" fill-rule="evenodd" stroke="#000" stroke-width="1.25"/>
 <path d="m382.51 380.7c-11.517 107.97-12.236 214.5-10.797 316.7" fill="none" stroke="#000" stroke-opacity=".64516" stroke-width="3.5"/>
 <path d="m80.92 384.3c9.837 117.8 13.196 217.61 13.676 318.86" fill="none" stroke="#000" stroke-opacity=".66129" stroke-width="2.75"/>
 <path d="m222.3 686.63c-0.46472-1.0121 0.23471 2.2172 0.43553 3.3127 0.39856 2.1742 0.88936 4.3285 1.4413 6.4689 1.6386 6.3537 3.8082 12.513 6.1365 18.642l1.7349 4.3051-0.83396 0.15637-1.7903-4.3013c-3.6741-9.0263-8.731-18.929-10.614-28.583h3.49z" fill-opacity=".75"/>
 <path d="m169.45 937.09c-0.35989 5.6383-2.1594 10.557-4.3187 15.835 47.626 2.6392 99.21 3.1191 148.28-2.8791-2.9991-3.8388-4.9185-9.1173-5.7583-15.835-43.907 4.5586-91.412 4.7986-138.2 2.8791z" fill="#e1bd23" fill-rule="evenodd" stroke="#000" stroke-width="1.25"/>
 <path transform="matrix(1 0 0 .86614 -142.6 -33.28)" d="m393.72 74.536a18.714 11.157 0 1 1 -37.429 0 18.714 11.157 0 1 1 37.429 0z" fill="#0a007d" fill-rule="evenodd" stroke="#000" stroke-width=".5"/>
 <path transform="scale(1.354 -.73854)" d="m165.31-48.445h1.8574l1.3482 11.427 1.6028-7.5614h1.9894l1.6216 7.5803 1.3482-11.446h1.8574l-2.1025 14.076h-1.8008l-1.9139-8.3628-1.9045 8.3628h-1.8008l-2.1025-14.076z" fill="#fff"/>
 <path d="m61.583 229.32c6.1076-136.88 64.129-201.57 169.48-208.53 130.97 3.921 162.19 87.509 169.99 209.06" fill="none" stroke="#000" stroke-opacity=".46774" stroke-width="2.4343"/>
 <path transform="scale(1.3386 .74706)" d="m150.48736,1269.5972v.9004h-5.04294c-.00694-.2256.02949-.4424.10929-.6506 .12837-.3435.33394-.6817.6167-1.0148s.6913-.7182 1.22561-1.1554c.82921-.68 1.38954-1.2186 1.68098-1.6159s.43716-.7728.43716-1.1267c0-.3712-.13271-.6844-.39812-.9394s-.61151-.3825-1.03826-.3825c-.45104,0-.81187.1353-1.08249.4059s-.40767.6454-.41114,1.1242l-.96279-.0989c.06592-.7182.31399-1.2655.74421-1.642s1.0079-.5646 1.73303-.5646 1.31147.2029 1.73823.6089 .64012.909.64012,1.5092c0,.3053-.06245.6054-.18735.9003s-.33221.6055-.62191.9316-.77111.7737-1.44419,1.3427c-.56206.4719-.92289.7919-1.08249.9602s-.29144.3374-.39552.5074h3.74187zm1.15015-.8639 .90034-.0833c.07633.4233.22205.7304.43716.9212s.49093.2862.82748.2862c.28797,0 .54037-.0659.75722-.1977s.39466-.3079.53344-.5283 .25501-.5178.34869-.8925 .14051-.7564.14051-1.1449c0-.0417-.00174-.1041-.0052-.1874-.18736.2984-.44324.5404-.76763.726s-.67569.2784-1.05387.2784c-.63145,0-1.16576-.229-1.60292-.6869s-.65574-1.0617-.65574-1.8111c0-.7737.22812-1.3965.68437-1.8684s1.02784-.7077 1.71481-.7077c.49613,0 .94977.1335 1.36092.4007s.72339.6479.93677,1.1423 .32005,1.21.32006,2.1468c-1e-005,.9749-.10583,1.7512-.31746,2.3289s-.52651,1.0174-.94458,1.3193-.90815.4528-1.47021.4528c-.59676,0-1.08422-.1657-1.4624-.497s-.60543-.7972-.68176-1.3974zm3.83555-3.3672c0-.5377-.14312-.9645-.42935-1.2802s-.63059-.4736-1.03305-.4736c-.41634,0-.77891.17-1.08769.51s-.46319.7807-.46318,1.3219c-1e-005,.4857.14658.8804.43976,1.184s.65487.4554 1.08509.4554 .79018-.1518 1.06948-.4554 .41894-.7243.41894-1.2621zm1.96202,3.1174 .93677-.1249c.10755.5308.29057.9134.54905,1.1475s.57333.3513.94458.3513c.44062,0 .81273-.1526 1.11631-.4579s.45537-.6835.45538-1.1346c-1e-005-.4302-.14052-.785-.42155-1.0643s-.63839-.4189-1.07208-.4189c-.17695,0-.39726.0347-.66094.1041l.10408-.8223c.06245.007.11276.0104.15093.0104 .39899,0 .75808-.1041 1.07728-.3122s.47879-.5291.4788-.9628c-1e-005-.3435-.11624-.628-.34869-.8535s-.53258-.3383-.90034-.3383c-.3643,0-.66789.1145-.91075.3435s-.399.5725-.46839,1.0304l-.93677-.1665c.1145-.628.37471-1.1146.78065-1.4598s.91074-.5178 1.51444-.5178c.41634,0 .79972.0893 1.15015.268s.61843.4224.80406.7312 .27842.6366.27843.9836c-1e-005,.3296-.08848.6297-.26542.9003s-.4389.4858-.78585.6454c.45104.104.80146.32 1.05127.6479s.3747.7381.37471,1.2308c-1e-005,.6662-.24288,1.2308-.7286,1.694s-1.09984.6948-1.84232.6948c-.66962,0-1.22561-.1995-1.66797-.5985s-.69477-.916-.75722-1.5509zm6.06819.2498 .90034-.0833c.07633.4233.22204.7304.43716.9212s.49093.2862.82748.2862c.28796,0 .54037-.0659.75722-.1977s.39465-.3079.53344-.5283 .255-.5178.34869-.8925 .14051-.7564.14051-1.1449c0-.0417-.00174-.1041-.0052-.1874-.18736.2984-.44324.5404-.76763.726s-.6757.2784-1.05387.2784c-.63146,0-1.16576-.229-1.60292-.6869s-.65574-1.0617-.65574-1.8111c0-.7737.22812-1.3965.68436-1.8684s1.02785-.7077 1.71481-.7077c.49614,0 .94978.1335 1.36092.4007s.72339.6479.93677,1.1423 .32006,1.21.32007,2.1468c-1e-005,.9749-.10583,1.7512-.31746,2.3289s-.52651,1.0174-.94458,1.3193-.90815.4528-1.47021.4528c-.59676,0-1.08423-.1657-1.4624-.497s-.60543-.7972-.68176-1.3974zm3.83555-3.3672c0-.5377-.14312-.9645-.42935-1.2802s-.63059-.4736-1.03305-.4736c-.41635,0-.77891.17-1.0877.51s-.46318.7807-.46318,1.3219c0,.4857.14659.8804.43976,1.184s.65487.4554 1.0851.4554 .79018-.1518 1.06948-.4554 .41894-.7243.41894-1.2621zm1.96202,3.1174 .93677-.1249c.10755.5308.29057.9134.54905,1.1475s.57333.3513.94457.3513c.44063,0 .81274-.1526 1.11632-.4579s.45537-.6835.45538-1.1346c-1e-005-.4302-.14052-.785-.42155-1.0643s-.63839-.4189-1.07208-.4189c-.17695,0-.39726.0347-.66094.1041l.10408-.8223c.06245.007.11276.0104.15093.0104 .39899,0 .75808-.1041 1.07728-.3122s.47879-.5291.47879-.9628c0-.3435-.11623-.628-.34868-.8535s-.53258-.3383-.90034-.3383c-.3643,0-.66789.1145-.91075.3435s-.399.5725-.46839,1.0304l-.93677-.1665c.1145-.628.37471-1.1146.78064-1.4598s.91075-.5178 1.51445-.5178c.41634,0 .79972.0893 1.15015.268s.61843.4224.80406.7312 .27842.6366.27843.9836c-1e-005,.3296-.08848.6297-.26542.9003s-.4389.4858-.78585.6454c.45104.104.80146.32 1.05127.6479s.3747.7381.3747,1.2308c0,.6662-.24287,1.2308-.72859,1.694s-1.09985.6948-1.84232.6948c-.66962,0-1.22561-.1995-1.66797-.5985s-.69477-.916-.75722-1.5509zm8.42573,2.0141 2.93001-7.6295h1.08769l3.12257,7.6295h-1.15015l-.88993-2.3107h-3.19022l-.83789,2.3107h-1.07208zm2.20141-3.133h2.58652l-.79625-2.113c-.24287-.6418-.42328-1.1692-.54125-1.5821-.09714.4893-.23419.975-.41113,1.4572l-.83789,2.2379zm5.7143,3.133v-7.6295h2.86235c.58287,0 1.05039.0772 1.40255.2316s.62798.392.82748.713 .29924.6566.29925,1.007c-1e-005,.3261-.08848.6332-.26542.9211s-.4441.5205-.80146.6974c.46144.1353.8162.3661 1.06428.6922s.3721.7112.3721,1.1553c0,.3574-.07546.6896-.22638.9967s-.33742.5438-.55946.7103-.50049.2924-.83529.3774-.74508.1275-1.23081.1275h-2.90919zm1.00963-4.4237h1.64975c.44757,0 .7685-.0295.96279-.0885 .25674-.0763.45017-.2029.58028-.3799s.19516-.399.19516-.6661c0-.2533-.06072-.4762-.18215-.6688s-.29491-.3244-.52043-.3955-.61237-.1067-1.16055-.1067h-1.52485v2.3055zm0,3.5233h1.89956c.32613,0 .55512-.0121.68696-.0364 .23246-.0416.42675-.111.58288-.2082s.2845-.2385.38512-.4241 .15092-.3999.15092-.6428c0-.2845-.07286-.5317-.21858-.7416s-.34782-.3573-.6063-.4423-.63058-.1275-1.11631-.1275h-1.76425v2.6229zm13.58837-4.8608-.93157.0729c-.08327-.3678-.20123-.6349-.35389-.8015-.25328-.2671-.56553-.4007-.93677-.4007-.29838,0-.56033.0833-.78584.2498-.29492.2151-.52737.5291-.69738.942s-.25848,1.0009-.26542,1.7642c.22552-.3435.50135-.5985.82748-.765s.66788-.2498 1.02525-.2498c.62451,0 1.15621.2298 1.59511.6896s.65834,1.0538.65834,1.7824c0,.4788-.10322.9238-.30965,1.3349s-.49008.726-.8509.9446-.77024.3279-1.22821.3279c-.78065,0-1.4173-.2871-1.90997-.8613s-.73901-1.5206-.73901-2.839c0-1.4745.27235-2.5466.81707-3.2162 .47532-.5829 1.11545-.8743 1.92038-.8743 .60022,0 1.09203.1682 1.47541.5048s.61324.8014.68957,1.3947zm-3.82515,3.2891c0,.3227.06853.6315.20557.9264s.32874.5195.57508.6739 .50481.2316.77543.2316c.39553,0 .73554-.1596 1.02004-.4788s.42675-.7528.42675-1.301c0-.5274-.14052-.9429-.42154-1.2465s-.63493-.4553-1.06168-.4553c-.42328,0-.78238.1518-1.07728.4553s-.44237.7018-.44237,1.1944zm9.82048,1.5717v.9004h-5.04295c-.00694-.2256.02949-.4424.10929-.6506 .12838-.3435.33394-.6817.61671-1.0148s.6913-.7182 1.22561-1.1554c.82921-.68 1.38954-1.2186 1.68098-1.6159s.43716-.7728.43716-1.1267c0-.3712-.13271-.6844-.39813-.9394s-.6115-.3825-1.03825-.3825c-.45104,0-.81187.1353-1.08249.4059s-.40767.6454-.41114,1.1242l-.96279-.0989c.06592-.7182.31399-1.2655.74421-1.642s1.0079-.5646 1.73303-.5646 1.31147.2029 1.73823.6089 .64012.909.64012,1.5092c0,.3053-.06245.6054-.18735.9003s-.33221.6055-.62191.9316-.77111.7737-1.44419,1.3427c-.56206.4719-.92289.7919-1.08249.9602s-.29144.3374-.39553.5074h3.74188z"/>
 <path d="m406.98 762.9c-4.7986 112.29-68.619 181.39-169.87 172.75-86.854 2.8791-169.39-50.385-178.51-159.79" fill="none" stroke="#000" stroke-opacity=".52419" stroke-width="1.625"/>
</svg>
